HIERARCHY
ROOT Hips
{
  OFFSET 112.667 101.931 -48.5519
  CHANNELS 6 Xposition Yposition Zposition Zrotation Xrotation Yrotation
  JOINT RightUpLeg
  {
    OFFSET -8.9458 -8.66707 0.101652
    CHANNELS 3 Zrotation Xrotation Yrotation
    JOINT RightLeg
    {
      OFFSET 0 -44.4227 1.3727
      CHANNELS 3 Zrotation Xrotation Yrotation
      JOINT RightFoot
      {
        OFFSET 0.253549 -42.0924 -1.46059
        CHANNELS 3 Zrotation Xrotation Yrotation
        JOINT RightToes
        {
          OFFSET 0.04 -4.41509 8.4991
          CHANNELS 3 Zrotation Xrotation Yrotation
          End Site
          {
            OFFSET -0.08 -0.137448 9.77979
          }
        }
      }
    }
  }
  JOINT Spine
  {
    OFFSET 0 11.8905 0
    CHANNELS 3 Zrotation Xrotation Yrotation
    JOINT Spine1
    {
      OFFSET 0 25.6574 0.127663
      CHANNELS 3 Zrotation Xrotation Yrotation
      JOINT HEad
      {
        OFFSET 0 8.73416 0.011341
        CHANNELS 3 Zrotation Xrotation Yrotation
        End Site
        {
          OFFSET -0.29 12.7742 2.51395
        }
      }
      JOINT LeftShoulder1
      {
        OFFSET 8.99 -0.362252 -0.22
        CHANNELS 3 Zrotation Xrotation Yrotation
        JOINT LeftArm
        {
          OFFSET 10.2827 -0.00338 0.322123
          CHANNELS 3 Zrotation Xrotation Yrotation
          JOINT LeftForeArm
          {
            OFFSET 32.7669 0.099144 -1.42434
            CHANNELS 3 Zrotation Xrotation Yrotation
            JOINT LeftHand
            {
              OFFSET 27.5643 0.085362 1.02216
              CHANNELS 3 Zrotation Xrotation Yrotation
              End Site
              {
                OFFSET 16.7443 -0.6 1.50291
              }
            }
          }
        }
      }
      JOINT RightShoulder
      {
        OFFSET -8.99 -0.362252 -0.22
        CHANNELS 3 Zrotation Xrotation Yrotation
        JOINT RightArm
        {
          OFFSET -10.2827 -0.00338 0.322123
          CHANNELS 3 Zrotation Xrotation Yrotation
          JOINT RightForeArm
          {
            OFFSET -32.8971 0.099144 -1.42434
            CHANNELS 3 Zrotation Xrotation Yrotation
            JOINT RightHand
            {
              OFFSET -27.4921 0.085362 1.02216
              CHANNELS 3 Zrotation Xrotation Yrotation
              End Site
              {
                OFFSET -16.6312 -0.6 1.50291
              }
            }
          }
        }
      }
    }
  }
  JOINT LeftUpLeg
  {
    OFFSET 8.9458 -8.66707 0.101652
    CHANNELS 3 Zrotation Xrotation Yrotation
    JOINT LeftLeg
    {
      OFFSET 0 -44.4227 1.3727
      CHANNELS 3 Zrotation Xrotation Yrotation
      JOINT LeftFoot
      {
        OFFSET -0.253549 -42.0924 -1.46059
        CHANNELS 3 Zrotation Xrotation Yrotation
        JOINT LeftToes
        {
          OFFSET -0.04 -4.41509 8.4991
          CHANNELS 3 Zrotation Xrotation Yrotation
          End Site
          {
            OFFSET 0.08 -0.047448 9.77979
          }
        }
      }
    }
  }
}
MOTION
Frames:	17
Frame Time:	0.0166667
64.0984 85.7239 -11.1279 13.3289 3.3962 -42.486 -8.96635 13.7919 4.35001 24.1151 40.3586 -32.092 9.07258 -28.2553 2.18923 0.0462048 0.000533403 0.662642 -5.34982 1.03707 12.4069 -11.7114 1.21647 23.8946 -0.204867 -8.10413 -37.8517 -0 0 7.95139e-016 -70.6331 -41.849 -15.3571 -35.436 51.2195 -74.0013 16.9939 13.1318 -41.7973 -12.332 -0.421629 6.92032 45.2092 -20.662 81.2327 -12.6606 -23.6779 18.2112 16.505 14.6783 -38.8139 -27.1005 -44.4797 -21.2516 57.5215 27.5776 -94.6547 -8.20221 -22.9032 6.74848 -1.33498e-009 1.56104e-007 -4.86177e-009 
63.675 86.1163 -11.0107 12.7931 3.3638 -42.5828 -9.05588 13.2262 4.56913 23.1006 41.673 -28.3299 6.68018 -25.8971 1.5043 0.0462048 0.000533403 0.662642 -4.98081 0.985185 12.3698 -11.3328 1.232 23.7964 2.25002 -5.85071 -36.4461 0 3.18055e-015 -0 -69.1196 -41.0055 -11.7288 -35.7886 50.6095 -76.3062 15.3603 13.7779 -42.103 -12.2488 -0.397616 6.64402 45.6512 -19.4804 80.0922 -13.888 -21.1131 18.159 12.1129 16.1639 -37.5756 -25.74 -43.7747 -20.2244 57.1212 27.4106 -94.2835 -7.82523 -23.1885 6.65919 -1.33498e-009 1.56104e-007 -4.86177e-009 
63.4437 86.5216 -10.9279 12.0958 3.13806 -43.0377 -9.44378 12.0382 4.90673 21.8219 44.0972 -24.9929 4.75163 -22.9806 0.941429 0.0462048 0.000533403 0.662642 -4.57011 1.00864 11.9914 -10.8225 1.41579 23.1026 4.19976 -3.85125 -34.2109 3.97569e-016 -1.59028e-015 -0 -68.5422 -40.2614 -9.78155 -36.147 50.3057 -78.191 14.3052 14.2014 -42.2754 -10.4175 -0.274202 6.89742 52.9829 -21.5338 80.0051 -9.9947 -9.90494 25.6308 4.41189 18.3516 -38.0491 -24.1413 -42.9266 -19.0315 56.6915 27.3406 -93.7628 -7.65779 -23.5716 6.46486 -1.33498e-009 1.56104e-007 -4.86177e-009 
63.4156 86.8986 -10.9208 11.3328 2.73986 -43.8601 -10.1973 10.2886 5.3228 20.2371 47.3208 -22.29 3.60726 -20.0756 0.560679 0.0462048 0.000533403 0.662642 -4.19153 1.13936 11.3679 -10.2029 1.78528 22.0232 5.33845 -2.13632 -31.3842 0 1.59028e-015 -0 -68.5657 -39.6878 -9.3184 -35.883 50.4193 -80.1674 14.1821 14.2555 -42.262 -7.0519 -0.0328692 7.70771 70.5841 -29.4707 83.3621 5.56531 16.6867 38.2004 -10.8469 22.5742 -36.7724 -22.4404 -42.0063 -17.7778 56.2575 27.3692 -93.1066 -7.67775 -24.0876 6.17231 -1.33498e-009 1.56104e-007 -4.86177e-009 
63.6055 87.1987 -11.0532 10.5663 2.21539 -45.0145 -11.316 7.95805 5.75793 18.4047 51.0775 -20.3687 3.24394 -17.6542 0.337149 0.0462048 0.000533403 0.662642 -3.87886 1.38877 10.5536 -9.48045 2.32952 20.7445 5.54886 -0.762922 -28.1547 3.97569e-016 1.59028e-015 3.18055e-015 -68.8043 -39.4684 -9.96227 -34.8178 50.9594 -82.3542 15.0421 13.923 -42.0329 -2.70795 0.35281 8.93827 99.8591 -41.2812 95.3301 32.8099 55.7022 37.7377 -25.5974 26.5603 -36.6816 -20.7389 -41.1297 -16.5431 55.8276 27.4762 -92.3527 -7.96669 -24.6779 5.79158 -1.33497e-009 1.56104e-007 -4.86177e-009 
63.9253 87.413 -11.2597 9.8219 1.58215 -46.5717 -12.8334 5.21908 6.22808 16.3606 54.8196 -19.0985 3.40211 -15.8889 0.223855 0.0462048 0.000533403 0.662642 -3.63348 1.73067 9.69469 -8.65464 3.00857 19.3872 4.88834 0.2158 -24.6262 0 1.59028e-015 -0 -68.9445 -39.8454 -11.2602 -33.281 51.8208 -84.4913 16.5702 13.3434 -41.5988 1.96355 0.878245 10.3394 129.14 -49.1909 111.815 96.5504 74.9903 -6.2477 -29.7487 27.8523 -37.298 -18.9467 -40.4815 -15.3237 55.3054 28.0858 -91.4748 -8.35702 -25.1889 5.35977 -1.33498e-009 1.56104e-007 -4.86177e-009 
64.3159 87.4588 -11.4759 9.05065 0.824519 -48.5365 -14.7216 2.22188 6.73286 14.3781 58.2794 -18.4645 3.83805 -14.9158 0.199705 0.0462048 0.000533403 0.662642 -3.39924 2.13057 8.85216 -7.74266 3.77382 18.0018 3.54158 0.788274 -20.8217 0 0 -0 -68.8053 -41.0299 -12.7941 -31.9815 52.8486 -86.0466 18.2202 12.7377 -41.0744 6.45943 1.49496 11.6783 123.166 -54.5462 102.78 90.1332 80.4699 12.1575 -27.8111 27.7472 -39.1626 -17.0328 -40.1702 -14.1513 54.7103 29.5632 -90.5138 -8.73534 -25.4859 4.91148 -1.33498e-009 1.56104e-007 -4.86177e-009 
64.7372 87.3512 -11.694 8.20765 -0.0188641 -50.8904 -16.872 -0.954265 7.22267 12.8701 61.1957 -18.5597 4.35246 -14.5466 0.242356 0.0462048 0.000533403 0.662642 -3.08905 2.53971 8.04406 -6.76038 4.57878 16.5925 1.7616 1.00126 -16.7278 -1.76556e-031 -3.18055e-015 -3.18055e-015 -68.3035 -43.1189 -14.2376 -31.7215 53.9052 -86.4216 19.4654 12.2883 -40.6817 10.504 2.13757 12.8255 112.953 -58.1873 90.1026 55.6851 83.3155 56.4382 -25.3036 27.4204 -41.0795 -14.9223 -40.1157 -12.9914 54.012 31.8353 -89.3923 -9.1777 -25.4554 4.50182 -1.33498e-009 1.56104e-007 -4.86177e-009 
65.1541 87.1489 -11.9555 7.30458 -0.915456 -53.5559 -19.1538 -4.22638 7.61041 12.3289 63.3814 -19.6669 4.82159 -14.3717 0.329448 0.0462048 0.000533403 0.662642 -2.75861 2.95456 7.24461 -5.757 5.3996 15.1587 -0.183356 0.954362 -12.3564 1.76556e-031 1.59028e-015 -6.36111e-015 -67.3864 -46.0646 -15.3615 -33.1072 54.8724 -85.1655 19.9721 12.0839 -40.6427 13.9797 2.75111 13.7538 100.614 -59.344 75.81 16.5241 81.257 103.4 -22.2892 26.9359 -43.4323 -12.6841 -40.0199 -11.8018 53.2401 34.3212 -87.8828 -9.99199 -25.0735 4.08192 -1.33497e-009 1.56104e-007 -4.86176e-009 
65.5308 86.8753 -12.2959 6.34157 -1.83651 -56.4571 -21.4335 -7.41609 7.77871 13.0384 64.789 -21.9446 5.15081 -14.0104 0.432042 0.0462048 0.000533403 0.662642 -2.44559 3.35796 6.46683 -4.79456 6.19726 13.7215 -2.05107 0.783782 -7.79499 -7.95139e-016 1.59028e-015 3.18055e-015 -66.001 -49.6908 -16.019 -36.3403 55.6176 -82.1629 19.6408 12.1432 -41.0559 16.8255 3.29668 14.4917 89.0271 -58.0542 62.7438 -0.127111 76.6494 125.984 -18.947 26.2861 -46.174 -10.2803 -39.7732 -10.5396 52.2847 36.8228 -85.9571 -11.1194 -24.3642 3.6768 -1.33498e-009 1.56104e-007 -4.86176e-009 
65.8358 86.5636 -12.7606 5.34235 -2.7308 -59.4969 -23.5486 -10.3009 7.59278 14.7436 65.4771 -25.1343 5.2881 -13.3008 0.523934 0.0462048 0.000533403 0.662642 -2.18411 3.72029 5.75003 -3.93507 6.91616 12.3395 -3.65584 0.639663 -3.22608 -1.32417e-031 7.95139e-016 9.54166e-015 -64.1208 -53.7273 -16.1395 -41.1084 56.0065 -77.7413 18.5798 12.4456 -41.8525 18.9909 3.74522 15.0748 80.1573 -54.9139 52.7638 -7.02156 71.405 137.127 -15.523 25.4672 -49.0307 -7.66392 -39.3077 -9.14629 51.0213 39.1586 -83.687 -12.3639 -23.4429 3.32315 -1.33497e-009 1.56104e-007 -4.86176e-009 
66.0458 86.2803 -13.3981 4.3651 -3.5354 -62.5444 -25.3058 -12.6506 6.96056 16.6386 65.5883 -28.4902 5.26587 -12.4133 0.586864 0.0462048 0.000533403 0.662642 -2.00345 4.00649 5.13997 -3.22857 7.49054 11.0998 -4.88759 0.657378 1.09786 4.41391e-032 7.95139e-016 -3.18055e-015 -61.8109 -57.8527 -15.743 -46.6293 55.9917 -72.6442 17.0631 12.9276 -42.8478 20.4565 4.07536 15.5203 74.4608 -50.7624 46.1631 -10.4174 66.276 143.323 -12.3114 24.5387 -51.6698 -4.84621 -38.5678 -7.58728 49.3466 41.1031 -81.1763 -13.4927 -22.4546 3.04142 -1.33498e-009 1.56104e-007 -4.86176e-009 
66.1504 86.1252 -14.2474 3.49393 -4.18852 -65.4429 -26.5123 -14.2969 5.90613 17.816 65.2885 -31.1142 5.17643 -11.7262 0.616545 0.0462048 0.000533403 0.662642 -1.90139 4.18195 4.67174 -2.6988 7.85661 10.0909 -5.71549 0.926456 4.91262 2.38542e-015 3.97569e-016 -3.18055e-015 -59.293 -61.7417 -14.9668 -51.9179 55.6995 -67.7985 15.4668 13.471 -43.8447 21.2719 4.27938 15.8287 71.4449 -46.4484 42.3047 -12.3608 61.8629 146.927 -9.61611 23.6333 -53.8163 -1.91294 -37.5357 -5.90688 47.1816 42.4436 -78.4921 -14.3076 -21.4616 2.83831 -1.33498e-009 1.56104e-007 -4.86175e-009 
66.1521 86.2089 -15.3295 2.81942 -4.64466 -68.0325 -27.0402 -15.193 4.59322 17.7973 64.6535 -32.4274 5.08779 -11.5358 0.611158 0.0462048 0.000533403 0.662642 -1.84145 4.22301 4.35897 -2.33866 7.96959 9.37078 -6.17525 1.4695 8.00995 -1.19271e-015 0 3.18055e-015 -56.9582 -65.1119 -14.0725 -56.1472 55.408 -63.9908 14.1758 13.9225 -44.7102 21.5633 4.3687 16.0017 70.3052 -42.6204 40.2952 -13.6292 58.5612 149.075 -7.64266 22.8966 -55.345 0.996903 -36.2566 -4.24819 44.4777 43.037 -75.6131 -14.7149 -20.3592 2.71801 -1.33498e-009 1.56104e-007 -4.86177e-009 
66.0614 86.6199 -16.6447 2.41372 -4.88313 -70.1759 -26.8798 -15.4214 3.25692 16.7042 63.6204 -32.3818 4.99738 -11.8537 0.573747 0.0462048 0.000533403 0.662642 -1.77349 4.12411 4.19227 -2.11689 7.81605 8.94974 -6.34624 2.24262 10.2852 3.97569e-016 -1.78906e-015 9.54166e-015 -55.2809 -67.7506 -13.3839 -58.8355 55.4168 -61.7145 13.4857 14.1449 -45.3782 21.5048 4.37214 16.0561 70.2459 -39.5868 39.2972 -14.532 56.3761 150.428 -6.40185 22.4022 -56.3005 3.73699 -34.8412 -2.81417 41.2467 42.8296 -72.446 -14.7721 -18.8809 2.6839 -1.33498e-009 1.56104e-007 -4.86177e-009 
65.8931 87.4001 -18.1736 2.30814 -4.90707 -71.7804 -26.1328 -15.1559 2.08709 15.0391 62.0916 -31.3253 4.8721 -12.4355 0.51091 0.0462048 0.000533403 0.662642 -1.65814 3.89846 4.14539 -1.99038 7.41769 8.79078 -6.32644 3.15854 11.7496 -1.19271e-015 -5.96354e-016 3.18055e-015 -54.6168 -69.5147 -13.1278 -59.7963 55.9048 -61.2201 13.5367 14.0656 -45.8008 21.2739 4.32646 16.0247 70.5967 -37.3289 38.6313 -15.1835 54.9497 151.389 -5.716 22.1192 -56.8427 6.19551 -33.4364 -1.79003 37.6011 41.844 -68.8971 -14.6807 -16.7099 2.72986 -1.33498e-009 1.56104e-007 -4.86177e-009 
65.6665 88.5374 -19.8781 2.4831 -4.73643 -72.8122 -24.9643 -14.6114 1.15222 13.3238 60.077 -29.6901 4.73265 -12.9439 0.432685 0.0462048 0.000533403 0.662642 -1.48166 3.57418 4.18501 -1.91621 6.82654 8.82543 -6.20906 4.12049 12.5082 4.41391e-032 7.95139e-016 -3.18055e-015 -54.9779 -70.321 -13.2526 -59.0026 56.855 -62.6205 14.2958 13.6991 -45.915 21.0179 4.26606 15.9478 70.8655 -35.6318 37.8185 -15.6164 53.7747 152.168 -5.31933 21.9524 -57.1645 8.31674 -32.1812 -1.26774 33.7573 40.1602 -64.9391 -14.7139 -13.6352 2.84153 -1.33498e-009 1.56104e-007 -4.86176e-009 
